<svg width="18" height="18" viewBox="0 0 18 18" fill="none" xmlns="http://www.w3.org/2000/svg">
<path d="M10.8928 11.1711C11.1849 10.8775 11.6597 10.8762 11.9534 11.1682C12.2469 11.4603 12.2483 11.9351 11.9563 12.2288L11.4788 12.7092H15.0955C15.4156 12.7092 15.6755 12.4493 15.6755 12.1292C15.6754 11.8092 15.4155 11.5498 15.0955 11.5498H13.2754C12.8612 11.5498 12.5254 11.214 12.5254 10.7998C12.5254 10.3856 12.8612 10.0498 13.2754 10.0498H15.0955C16.2439 10.0498 17.1754 10.9807 17.1755 12.1292C17.1755 13.2777 16.244 14.2092 15.0955 14.2092H11.4802L12.0391 14.771L12.0903 14.8281C12.3296 15.1233 12.3113 15.5577 12.0361 15.8315C11.761 16.1053 11.3267 16.1213 11.0327 15.8806L10.9756 15.8286L9.1438 13.988C8.85277 13.6956 8.85232 13.2231 9.14307 12.9304L10.8928 11.1711ZM7.42554 10.0498L7.50171 10.0535C7.88001 10.0918 8.17554 10.4114 8.17554 10.7998C8.17554 11.1882 7.88001 11.5078 7.50171 11.5461L7.42554 11.5498H4.7251C4.31095 11.5497 3.9751 11.214 3.9751 10.7998C3.9751 10.3856 4.31095 10.0499 4.7251 10.0498H7.42554ZM10.1252 7.3501L10.2021 7.35376C10.5802 7.39228 10.8752 7.71185 10.8752 8.1001C10.8751 8.4882 10.5801 8.80719 10.2021 8.8457L10.1252 8.8501H4.7251C4.31104 8.85002 3.97526 8.51413 3.9751 8.1001C3.9751 7.68593 4.31095 7.35017 4.7251 7.3501H10.1252ZM12.5254 7.19995V3.6001C12.5254 3.0202 12.055 2.5498 11.4751 2.5498H3.37524C2.79535 2.5498 2.32495 3.0202 2.32495 3.6001V14.3997C2.32495 14.9796 2.79534 15.4499 3.37524 15.45H7.87524L7.95142 15.4536C8.32971 15.4919 8.62524 15.8116 8.62524 16.2C8.62515 16.5883 8.32963 16.9072 7.95142 16.9456L7.87524 16.95H3.37524C1.96692 16.9499 0.824942 15.808 0.824951 14.3997V3.6001C0.82496 2.19178 1.96692 1.0498 3.37524 1.0498H11.4751C12.8834 1.0498 14.0254 2.19177 14.0254 3.6001V7.19995C14.0253 7.61404 13.6895 7.94986 13.2754 7.94995C12.8612 7.94995 12.5255 7.6141 12.5254 7.19995ZM10.1252 4.64966C10.5394 4.64966 10.8752 4.98552 10.8752 5.39966C10.8752 5.81387 10.5395 6.14965 10.1252 6.14966H4.7251C4.31095 6.14959 3.9751 5.81383 3.9751 5.39966C3.97518 4.98556 4.31099 4.64973 4.7251 4.64966H10.1252Z" fill="white"/>
</svg>
