<svg width="20" height="20" viewBox="0 0 20 20" fill="none" xmlns="http://www.w3.org/2000/svg">
<path d="M14.1667 6.02954C14.1667 6.00401 14.1581 5.98847 14.152 5.98071H5.84798C5.8419 5.98847 5.83333 6.00401 5.83333 6.02954V15.7358C5.83352 16.2954 6.25076 16.6667 6.66667 16.6667H13.3333C13.7492 16.6667 14.1665 16.2954 14.1667 15.7358V6.02954ZM7.5 13.9706V8.67684C7.5 8.2166 7.8731 7.84351 8.33333 7.84351C8.79357 7.84351 9.16667 8.2166 9.16667 8.67684V13.9706C9.16667 14.4309 8.79357 14.804 8.33333 14.804C7.8731 14.804 7.5 14.4309 7.5 13.9706ZM10.8333 13.9706V8.67684C10.8333 8.2166 11.2064 7.84351 11.6667 7.84351C12.1269 7.84351 12.5 8.2166 12.5 8.67684V13.9706C12.5 14.4309 12.1269 14.804 11.6667 14.804C11.2064 14.804 10.8333 14.4309 10.8333 13.9706ZM11.6667 3.38224C11.6666 3.35666 11.6581 3.34109 11.652 3.33341H8.34798C8.3419 3.34109 8.33337 3.35666 8.33333 3.38224V4.2644C8.33333 4.29027 8.34188 4.3064 8.34798 4.31405H11.652C11.6581 4.3064 11.6667 4.29027 11.6667 4.2644V3.38224ZM13.3333 4.2644C13.3333 4.28087 13.3314 4.29764 13.3309 4.31405H16.6667C17.1269 4.31405 17.5 4.68714 17.5 5.14738C17.4999 5.60751 17.1268 5.98071 16.6667 5.98071H15.8309C15.8313 5.99696 15.8333 6.01323 15.8333 6.02954V15.7358C15.8331 17.1249 14.7582 18.3334 13.3333 18.3334H6.66667C5.24185 18.3334 4.16686 17.1249 4.16667 15.7358V6.02954C4.16667 6.01323 4.16865 5.99696 4.16911 5.98071H3.33333C2.87318 5.98071 2.50013 5.60751 2.5 5.14738C2.5 4.68714 2.8731 4.31405 3.33333 4.31405H6.66911C6.66864 4.29764 6.66667 4.28087 6.66667 4.2644V3.38224C6.66677 2.48029 7.36869 1.66675 8.33333 1.66675H11.6667C12.6313 1.66675 13.3332 2.48029 13.3333 3.38224V4.2644Z" fill="#D9D9D9"/>
</svg>
