<svg width="16" height="16" viewBox="0 0 16 16" fill="none" xmlns="http://www.w3.org/2000/svg">
<path d="M1.82711 1.11112C1.84104 0.941835 1.91968 0.784437 2.04668 0.671655C2.17369 0.558873 2.33928 0.499388 2.50902 0.50557C2.67876 0.511753 2.83958 0.583128 2.95805 0.704852C3.07651 0.826575 3.14349 0.989278 3.14506 1.15912V4.53013C3.14506 4.65447 3.19445 4.77371 3.28238 4.86163C3.3703 4.94956 3.48954 4.99895 3.61388 4.99895C3.73822 4.99895 3.85747 4.94956 3.94539 4.86163C4.03331 4.77371 4.0827 4.65447 4.0827 4.53013V1.06161C4.0827 0.912401 4.14197 0.769306 4.24748 0.663801C4.35298 0.558295 4.49608 0.499023 4.64529 0.499023C4.79449 0.499023 4.93759 0.558295 5.04309 0.663801C5.1486 0.769306 5.20787 0.912401 5.20787 1.06161V4.53013C5.20787 4.65447 5.25726 4.77371 5.34519 4.86163C5.43311 4.94956 5.55235 4.99895 5.67669 4.99895C5.80103 4.99895 5.92028 4.94956 6.0082 4.86163C6.09612 4.77371 6.14551 4.65447 6.14551 4.53013V1.15912C6.14708 0.989278 6.21407 0.826575 6.33253 0.704852C6.45099 0.583128 6.61181 0.511753 6.78155 0.50557C6.95129 0.499388 7.11688 0.558873 7.24389 0.671655C7.37089 0.784437 7.44953 0.941835 7.46346 1.11112C7.49571 1.57018 7.64574 3.77702 7.64574 4.9997C7.64574 6.01235 7.14316 6.90799 6.37655 7.45032C6.21452 7.56508 6.17552 7.6866 6.17927 7.74811C6.27153 9.15682 6.52057 13.0124 6.52057 13.6237C6.52057 14.1211 6.32299 14.5981 5.97131 14.9498C5.61963 15.3014 5.14264 15.499 4.64529 15.499C4.14793 15.499 3.67095 15.3014 3.31926 14.9498C2.96758 14.5981 2.77001 14.1211 2.77001 13.6237C2.77001 13.0117 3.01904 9.15682 3.11131 7.74811C3.11506 7.6866 3.07605 7.56508 2.91403 7.45032C2.5218 7.17322 2.20181 6.80603 1.98096 6.37959C1.7601 5.95315 1.64483 5.47993 1.64484 4.9997C1.64484 3.77702 1.79486 1.57018 1.82711 1.11112Z" fill="#FF9200"/>
<path d="M10.0342 1.76231C9.22529 2.57119 8.77087 3.66825 8.77087 4.81217V6.68745C8.77087 6.85984 8.80483 7.03054 8.8708 7.1898C8.93677 7.34906 9.03346 7.49377 9.15535 7.61567C9.27725 7.73756 9.42196 7.83426 9.58122 7.90023C9.74049 7.96619 9.91118 8.00015 10.0836 8.00015H10.6064L10.5891 8.26494C10.5539 8.78852 10.5066 9.49437 10.4601 10.2227C10.3671 11.6652 10.2711 13.2382 10.2711 13.6237C10.2711 14.1211 10.4687 14.5981 10.8204 14.9498C11.172 15.3014 11.649 15.499 12.1464 15.499C12.6437 15.499 13.1207 15.3014 13.4724 14.9498C13.8241 14.5981 14.0217 14.1211 14.0217 13.6237C14.0217 13.2194 13.9166 11.6629 13.8191 10.2317L13.8154 10.1695C13.7261 8.85903 13.6466 7.6761 13.6466 7.43756V1.06161C13.6466 0.912401 13.5873 0.769306 13.4818 0.663801C13.3763 0.558295 13.2332 0.499023 13.084 0.499023C11.9401 0.499023 10.843 0.953443 10.0342 1.76231Z" fill="#DD4020"/>
</svg>
