<svg width="16" height="16" viewBox="0 0 16 16" fill="none" xmlns="http://www.w3.org/2000/svg">
<path d="M12.1268 4.96899C13.2662 4.96911 14.1896 5.92786 14.1896 7.11V13.36C14.1895 14.5421 13.2662 15.5 12.1268 15.5001H10.0631V11.9537C10.0631 10.7716 9.1396 9.81292 8.00026 9.81269C6.86073 9.81269 5.93656 10.7715 5.93656 11.9537V15.5001H3.87376C2.73426 15.5001 1.81011 14.5422 1.81006 13.36V7.11C1.81006 5.92779 2.73423 4.96899 3.87376 4.96899H12.1268Z" fill="#DD4020"/>
<path d="M8.25069 0.5L9.03569 6.48773C9.16086 7.44251 9.97455 8.15649 10.9375 8.15649C12.1454 8.15649 13.0526 7.05348 12.8196 5.86829L11.7639 0.5H8.25069Z" fill="#FFC642"/>
<path d="M6.4715 6.41481L7.24693 0.5L8.75258 0.500003L9.52801 6.41481C9.64901 7.33773 8.93058 8.1565 7.99976 8.1565C7.06893 8.1565 6.3505 7.33773 6.4715 6.41481Z" fill="#FF9200"/>
<path d="M7.24749 0.5L6.40781 6.90492C6.31393 7.62101 5.70366 8.15649 4.98144 8.15649C4.07553 8.15649 3.3951 7.32923 3.5699 6.44034L4.73807 0.5H7.24749Z" fill="#FFC642"/>
<path d="M0.242917 5.65926L2.91869 1.28565C3.21707 0.797945 3.75133 0.5 4.32749 0.5H5.74148L3.22029 7.09349C2.97566 7.73325 2.35651 8.15649 1.66523 8.15649C0.369934 8.15649 -0.427892 6.75571 0.242917 5.65926Z" fill="#FF9200"/>
<path d="M15.7571 5.65926L13.0813 1.28565C12.7829 0.797945 12.2487 0.5 11.6725 0.5H10.2585L12.7797 7.09349C13.0243 7.73325 13.6435 8.15649 14.3348 8.15649C15.6301 8.15649 16.4279 6.75571 15.7571 5.65926Z" fill="#FF9200"/>
</svg>
